UNKNOWN
version=1
nRows=58
nColumns=10
inDegrees=no
endheader
time	hip_flexion_r	glut_max1_r	glut_max2_r	glut_max3_r	glut_med1_r	glut_med2_r	glut_med3_r	iliacus_r	psoas_r
      0.00000000	    -10.00000000	     -0.04815967	     -0.05551158	     -0.05445116	     -0.01762577	     -0.01924077	     -0.01533598	      0.02560378	      0.01849105
      1.00000000	     -8.98989899	     -0.04825036	     -0.05583402	     -0.05616927	     -0.01775701	     -0.01924446	     -0.01512935	      0.02582143	      0.01865455
      2.00000000	     -7.97979798	     -0.04832347	     -0.05612112	     -0.05779193	     -0.01788160	     -0.01924216	     -0.01491940	      0.02603676	      0.01881533
      3.00000000	     -6.96969697	     -0.04837955	     -0.05637504	     -0.05932207	     -0.01799954	     -0.01923391	     -0.01470618	      0.02624976	      0.01897333
      4.00000000	     -5.95959596	     -0.04841911	     -0.05659777	     -0.06076281	     -0.01811087	     -0.01921978	     -0.01448976	      0.02646038	      0.01912851
      5.00000000	     -4.94949495	     -0.04844266	     -0.05679117	     -0.06211735	     -0.01821560	     -0.01919979	     -0.01427021	      0.02666860	      0.01928079
      6.00000000	     -3.93939394	     -0.04845067	     -0.05695694	     -0.06338896	     -0.01831375	     -0.01917400	     -0.01404758	      0.02687438	      0.01943012
      7.00000000	     -2.92929293	     -0.04844362	     -0.05709663	     -0.06458095	     -0.01840536	     -0.01914246	     -0.01382195	      0.02707770	      0.01957644
      8.00000000	     -1.91919192	     -0.04842193	     -0.05721172	     -0.06569659	     -0.01849045	     -0.01910521	     -0.01359337	      0.02727851	      0.01971967
      9.00000000	     -0.90909091	     -0.04838605	     -0.05730353	     -0.06673915	     -0.01856905	     -0.01906232	     -0.01336191	      0.02747679	      0.01985976
     10.00000000	      0.10101010	     -0.04833637	     -0.05737332	     -0.06771181	     -0.01864120	     -0.01901382	     -0.01312763	      0.02767250	      0.01999663
     11.00000000	      1.11111111	     -0.04827329	     -0.05742223	     -0.06861768	     -0.01870692	     -0.01895978	     -0.01289059	      0.02786559	      0.02013022
     12.00000000	      2.12121212	     -0.04819719	     -0.05745131	     -0.06945979	     -0.01876627	     -0.01890025	     -0.01265086	      0.02805605	      0.02026045
     13.00000000	      3.13131313	     -0.04810844	     -0.05746157	     -0.07024106	     -0.01881927	     -0.01883528	     -0.01240850	      0.02824381	      0.02038724
     14.00000000	      4.14141414	     -0.04800738	     -0.05745391	     -0.07096429	     -0.01886598	     -0.01876493	     -0.01216357	      0.02842885	      0.02051051
     15.00000000	      5.15151515	     -0.04789435	     -0.05742917	     -0.07163218	     -0.01890642	     -0.01868925	     -0.01191613	      0.02861113	      0.02063019
     16.00000000	      6.16161616	     -0.04776967	     -0.05738814	     -0.07224731	     -0.01894065	     -0.01860830	     -0.01166625	      0.02879059	      0.02074619
     17.00000000	      7.17171717	     -0.04763366	     -0.05733155	     -0.07281214	     -0.01896871	     -0.01852214	     -0.01141397	      0.02896720	      0.02085842
     18.00000000	      8.18181818	     -0.04748661	     -0.05726008	     -0.07332901	     -0.01899065	     -0.01843082	     -0.01115938	      0.02914090	      0.02096680
     19.00000000	      9.19191919	     -0.04732881	     -0.05717436	     -0.07380016	     -0.01900652	     -0.01833441	     -0.01090252	      0.02931165	      0.02107123
     20.00000000	     10.20202020	     -0.04716053	     -0.05707498	     -0.07422769	     -0.01901636	     -0.01823297	     -0.01064345	      0.02947940	      0.02117161
     21.00000000	     11.21212121	     -0.04698205	     -0.05696248	     -0.07461361	     -0.01902024	     -0.01812654	     -0.01038225	      0.02964410	      0.02126785
     22.00000000	     12.22222222	     -0.04679362	     -0.05683739	     -0.07495982	     -0.01901819	     -0.01801520	     -0.01011896	      0.02980568	      0.02135984
     23.00000000	     13.23232323	     -0.04659548	     -0.05670017	     -0.07526812	     -0.01901028	     -0.01789901	     -0.00985364	      0.02996409	      0.02144747
     24.00000000	     14.24242424	     -0.04638788	     -0.05655128	     -0.07554020	     -0.01899655	     -0.01777801	     -0.00958637	      0.03011927	      0.02153063
     25.00000000	     15.25252525	     -0.04617105	     -0.05639112	     -0.07577767	     -0.01897707	     -0.01765229	     -0.00931719	      0.03027115	      0.02160921
     26.00000000	     16.26262626	     -0.04594520	     -0.05622011	     -0.07598204	     -0.01895189	     -0.01752189	     -0.00904617	      0.03041967	      0.02168309
     27.00000000	     17.27272727	     -0.04571055	     -0.05603859	     -0.07615474	     -0.01892106	     -0.01738689	     -0.00877336	      0.03056474	      0.02175213
     28.00000000	     18.28282828	     -0.04546731	     -0.05584693	     -0.07629713	     -0.01888465	     -0.01724733	     -0.00849882	      0.03070630	      0.02181621
     29.00000000	     19.29292929	     -0.04521568	     -0.05564544	     -0.07641047	     -0.01884271	     -0.01710329	     -0.00822262	      0.03084425	      0.02187520
     30.00000000	     20.30303030	     -0.04495584	     -0.05543442	     -0.07649597	     -0.01879529	     -0.01695483	     -0.00794481	      0.03097851	      0.02192894
     31.00000000	     21.31313131	     -0.04468799	     -0.05521417	     -0.07655476	     -0.01874247	     -0.01680201	     -0.00766545	      0.03110899	      0.02197731
     32.00000000	     22.32323232	     -0.04441231	     -0.05498496	     -0.07658791	     -0.01868431	     -0.01664490	     -0.00738460	      0.03123559	      0.02202013
     33.00000000	     23.33333333	     -0.04412896	     -0.05474705	     -0.07659644	     -0.01862085	     -0.01648355	     -0.00710231	      0.03135820	      0.02205725
     34.00000000	     24.34343434	     -0.04383813	     -0.05450067	     -0.07658128	     -0.01855216	     -0.01631803	     -0.00681865	      0.03147669	      0.02208851
     35.00000000	     25.35353535	     -0.04353996	     -0.05424606	     -0.07654336	     -0.01847831	     -0.01614841	     -0.00653368	      0.03159096	      0.02211374
     36.00000000	     26.36363636	     -0.04323463	     -0.05398343	     -0.07648351	     -0.01839935	     -0.01597475	     -0.00624744	      0.03170086	      0.02213274
     37.00000000	     27.37373737	     -0.04292228	     -0.05371299	     -0.07640254	     -0.01831535	     -0.01579711	     -0.00596000	      0.03180624	      0.02214534
     38.00000000	     28.38383838	     -0.04260307	     -0.05343493	     -0.07630120	     -0.01822637	     -0.01561556	     -0.00567142	      0.03190696	      0.02215134
     39.00000000	     29.39393939	     -0.04227713	     -0.05314945	     -0.07618022	     -0.01813247	     -0.01543017	     -0.00538175	      0.03200284	      0.02215054
     40.00000000	     30.40404040	     -0.04194461	     -0.05285671	     -0.07604028	     -0.01803372	     -0.01524099	     -0.00509105	      0.03209370	      0.02214272
     41.00000000	     31.41414141	     -0.04160565	     -0.05255690	     -0.07588202	     -0.01793017	     -0.01504809	     -0.00479938	      0.03217933	      0.02212766
     42.00000000	     32.42424242	     -0.04126038	     -0.05225016	     -0.07570604	     -0.01782190	     -0.01485154	     -0.00450679	      0.03225952	      0.02210513
     43.00000000	     33.43434343	     -0.04090893	     -0.05193665	     -0.07551292	     -0.01770896	     -0.01465140	     -0.00421335	      0.03233401	      0.02207489
     44.00000000	     34.44444444	     -0.04055142	     -0.05161652	     -0.07530322	     -0.01759142	     -0.01444773	     -0.00391910	      0.03240256	      0.02203669
     45.00000000	     35.45454545	     -0.04018799	     -0.05128991	     -0.07507745	     -0.01746935	     -0.01424061	     -0.00362411	      0.03246487	      0.02199027
     46.00000000	     36.46464646	     -0.03981874	     -0.05095696	     -0.07483609	     -0.01734280	     -0.01403009	     -0.00332844	      0.03252063	      0.02193536
     47.00000000	     37.47474747	     -0.03944379	     -0.05061779	     -0.07457963	     -0.01721184	     -0.01381624	     -0.00303213	      0.03256947	      0.02187168
     48.00000000	     38.48484848	     -0.03906326	     -0.05027254	     -0.07430850	     -0.01707654	     -0.01359913	     -0.00273525	      0.03261102	      0.02179893
     49.00000000	     39.49494949	     -0.03867727	     -0.04992131	     -0.07402313	     -0.01693695	     -0.01337882	     -0.00243785	      0.03264484	      0.02171681
     50.00000000	     40.50505051	     -0.03828591	     -0.04956423	     -0.07372393	     -0.01679314	     -0.01315537	     -0.00213999	      0.03267047	      0.02256056
     51.00000000	     41.51515152	     -0.03788930	     -0.04920140	     -0.07341126	     -0.01664518	     -0.01292885	     -0.00184173	      0.03268736	      0.02272310
     52.00000000	     42.52525253	     -0.03748754	     -0.04883294	     -0.07308550	     -0.01649313	     -0.01269933	     -0.00154312	      0.03269493	      0.02288217
     53.00000000	     43.53535354	     -0.03708073	     -0.04845895	     -0.07274701	     -0.01633705	     -0.01246686	     -0.00124422	      0.03269253	      0.02303769
     54.00000000	     44.54545455	     -0.03666897	     -0.04807952	     -0.07239610	     -0.01617701	     -0.01223152	     -0.00094509	      0.03267940	      0.02318958
     55.00000000	     45.55555556	     -0.03625237	     -0.04769476	     -0.07203310	     -0.01601307	     -0.01199337	     -0.00064578	      0.03265474	      0.02333777
     56.00000000	     46.56565657	     -0.03583101	     -0.04730477	     -0.07165832	     -0.01584530	     -0.01175247	     -0.00034635	      0.03261760	      0.02348216
     57.00000000	     47.57575758	     -0.03540499	     -0.04690962	     -0.07127204	     -0.01567375	     -0.01150890	     -0.00004685	      0.03256694	      0.02362267
